<?xml version="1.0" encoding="utf-8"?>
<!-- Generator: Adobe Illustrator 27.5.0, SVG Export Plug-In . SVG Version: 6.00 Build 0)  -->
<svg version="1.1" xmlns="http://www.w3.org/2000/svg" xmlns:xlink="http://www.w3.org/1999/xlink" x="0px" y="0px"
	 viewBox="0 0 500 500" style="enable-background:new 0 0 500 500;" xml:space="preserve">
<g id="BACKGROUND">
	<rect style="fill:#FFFFFF;" width="500" height="500"/>
</g>
<g id="OBJECTS">
	<g>
		<g>
			<ellipse style="fill:#E1FFF3;" cx="112.267" cy="121.643" rx="74.257" ry="95.877"/>
			<g>
				<rect x="117.835" y="118.843" style="fill:#7AC7C4;" width="68.688" height="105.688"/>
				<path style="fill:#498E89;" d="M168.848,118.843h-3.857V99.828c0-5.195-4.226-9.422-9.421-9.422
					c-5.195,0-9.421,4.227-9.421,9.422v3.881h-3.857v-3.881c0-7.322,5.957-13.279,13.278-13.279c7.321,0,13.278,5.957,13.278,13.279
					V118.843z"/>
				<polygon style="fill:#498E89;" points="120.636,224.531 120.636,123.136 155.57,123.136 155.57,224.531 158.739,224.531 
					158.739,118.843 117.835,118.843 117.835,224.531 				"/>
				<g>
					<path style="fill:#498E89;" d="M147.287,224.531h-2.893v-40.685c0-2.453-1.996-4.45-4.449-4.45
						c-4.048,0-7.342-3.294-7.342-7.342v-16.951c0-4.048,3.294-7.342,7.342-7.342c2.453,0,4.449-1.996,4.449-4.45v-21.668h2.893
						v21.668c0,4.049-3.294,7.342-7.342,7.342c-2.453,0-4.449,1.996-4.449,4.45v16.951c0,2.453,1.996,4.45,4.449,4.45
						c4.048,0,7.342,3.294,7.342,7.342V224.531z"/>
					<rect x="131.986" y="155.693" style="fill:#498E89;" width="4.275" height="15.551"/>
				</g>
				<polygon style="fill:#498E89;" points="124.69,121.644 133.884,130.837 156.97,130.837 156.97,121.238 				"/>
			</g>
			<g>
				<g>
					<g>
						<path style="fill:#384259;" d="M70.752,117.495c-1.924,64.104-6.357,99.622-6.357,99.622c2.478,1.55,4.929,1.681,7.35,0.181
							c7.366-34.263,15.53-84.179,16.151-84.158l-0.809-15.384L70.752,117.495z"/>
						<path style="fill:#1B1B28;" d="M71.714,217.298c4.935,3.625,13.245,2.451,13.166,6.938
							c-10.871,1.155-16.369-0.018-16.369-0.018l-3.793-0.48c0,0-1.47-3.659-0.452-6.624L71.714,217.298z"/>
					</g>
					<g>
						<path style="fill:#1B1B28;" d="M100.869,217.811c4.934,3.625,13.245,2.452,13.166,6.938
							c-10.871,1.155-16.368-0.018-16.368-0.018l-3.793-0.48c0,0-1.469-3.659-0.452-6.624L100.869,217.811z"/>
						<path style="fill:#384259;" d="M102.478,118l-15.391-0.245c-0.269,4.975-0.033,10.094,0.809,15.384
							c0,0,6.02,23.873,6.808,35.672c-0.343,13.501-1.283,48.816-1.283,48.816c2.451,1.567,4.901,1.663,7.35,0.181
							c1.834-18.553,6.329-35.664,6.665-49.884C108.091,140.169,102.478,118,102.478,118z"/>
					</g>
				</g>
				<g>
					<g>
						<g>
							<path style="fill:#E7AC8D;" d="M94.619,71.511c0,0,3.604,19.896,38.242,49.15l3.378-4.118c0,0-20.806-18.368-28.153-36.041
								L94.619,71.511z"/>
						</g>
						<path style="fill:#E7AC8D;" d="M132.322,123.949c0.137,0.353,0.291,0.907,0.731,0.986c0.448,0.081,0.733-0.34,0.742-0.743
							c0.012-0.549-0.118-1.129-0.179-1.674c-0.021-0.183-0.041-0.366-0.062-0.55c0.62,0.951,1.093,1.994,1.388,3.092
							c0.191,0.711,0.313,1.44,0.354,2.176c0.031,0.562,0.046,1.255,0.659,1.503c0.312,0.126,0.596,0.033,0.808-0.165
							c0.317,0.061,0.666-0.06,0.892-0.347c0.063-0.079,0.113-0.168,0.157-0.26c0.106,0.084,0.255,0.107,0.379-0.016
							c0.37-0.367,0.564-0.833,0.662-1.331c0.102-0.014,0.198-0.072,0.242-0.195c0.832-2.344,0.589-5.001-0.576-7.192
							c-0.545-1.024-1.363-2.179-2.402-2.75c-1.283-0.705-2.618,0.012-3.712,0.724c-0.03,0.02-0.051,0.045-0.071,0.069
							c-0.149-0.057-0.333-0.014-0.384,0.185C131.4,119.605,131.52,121.886,132.322,123.949z"/>
					</g>
					<path style="fill:#F73859;" d="M97.559,63.923c6.018,2.605,12.471,17.339,12.471,17.339l-10.722,5.195L97.559,63.923z"/>
					<g>
						<path style="fill:#F73859;" d="M90.166,61.512l7.393,2.411c0,0,3.631,31.903,5.44,56.34
							c-23.278,4.922-32.342,0.306-32.342,0.306c1.383-28.774,4.9-56.646,4.9-56.646l7.343-2.411H90.166z"/>
					</g>
					<g>
						<path style="fill:#384259;" d="M79.27,62.704c0,0-1.302,27.712-6.738,29.71c0,0-2.009,16.553-1.9,28.934
							c0,0,12.576,5.417,32.598,0c0,0-1.302-21.796-2.716-29.327c0,0-6.154-6.696-6.174-29.149l-1.823-0.595
							c0,0,0.338,16.412-1.647,22.666c-0.492,1.549-2.706,1.77-4.042,1.77c-1.201,0-3.422,0.002-4-1.474
							c-2.404-6.136-1.986-23.052-1.986-23.052L79.27,62.704z"/>
						<path style="fill:#222B3D;" d="M79.27,89.557h16.231c0,0,0.069,7.428-8.116,7.428C79.201,96.985,79.27,89.557,79.27,89.557z"
							/>
					</g>
					<g>
						<rect x="48.527" y="134.982" style="fill:#B52141;" width="40.418" height="21.571"/>
						<rect x="62.92" y="134.982" style="fill:#F73859;" width="26.025" height="21.571"/>
						<polygon style="fill:#222B3D;" points="57.161,134.982 59.444,127.483 80.075,127.483 82.159,134.982 79.542,134.982 
							77.996,129.671 61.328,129.671 59.612,134.982 						"/>
						<rect x="67.696" y="134.982" style="fill:#222B3D;" width="2.125" height="21.571"/>
						
							<rect x="75.173" y="143.154" transform="matrix(-1.836970e-16 1 -1 -1.836970e-16 222.0028 69.5327)" style="fill:#222B3D;" width="2.125" height="5.228"/>
						<rect x="82.649" y="134.982" style="fill:#222B3D;" width="2.124" height="21.571"/>
					</g>
					<g>
						<g>
							<g>
								<path style="fill:#E7AC8D;" d="M72.521,65.806l0.564,20.331c-2.481,4.155-6.535,10.528-8.176,15.481l9.199,22.959
									l-4.275,2.845c0,0-11.963-21.135-12.691-26.799C56.113,92.758,72.521,65.806,72.521,65.806z"/>
							</g>
							<path style="fill:#E7AC8D;" d="M74.065,124.485c0,0,2.163,7.134-1.803,8.1c-3.966,0.967-6.556-0.741-6.409-2.551
								c0.147-1.81,1.107-0.337,1.329-0.11c0.221,0.227-0.327-3.73,0.523-4.929C68.554,123.797,73.189,123.77,74.065,124.485z"/>
						</g>
						<path style="fill:#F73859;" d="M75.558,63.923c-6.018,2.605-11.94,16.513-11.94,16.513l10.046,6.021L75.558,63.923z"/>
					</g>
				</g>
				<g>
					<g>
						<g>
							<path style="fill:#5B3D31;" d="M99.871,37.528c0.817-5.738-6.371-8.326-7.774-7.961c0.267-0.305-4.415-0.729-6.751,0.343
								c0.191-0.362-3.472,0.756-4.912,2.38c-1.02-0.343-1.919,0.638-1.499,1.156c-1.024,0.413-1.938,1.107-2.382,2.117
								c-1.264,2.875-0.302,6.122,0.653,8.935c1.004,2.955,2.4,5.784,4.18,8.35c0.628,0.905,1.406,2,2.629,2.023
								c1.328,0.025,2.103-1.107,2.719-2.114c2.825-4.614,8.732-6.052,11.622-10.647C99.147,40.854,99.699,39.002,99.871,37.528z"/>
							<path style="fill:#E7AC8D;" d="M81.967,36.505c3.28-6.013,14.818-3.96,15.715,0.82c1.845,9.833,0.444,13.87-2.289,16.193
								c-3.163,2.688-5.227,2.346-5.227,7.994c-1.196,3.006-5.785,3.416-7.265,0c0.091-7.482-2.476-13.152-2.476-13.152
								S80.615,38.984,81.967,36.505z"/>
							<path style="fill:#5B3D31;" d="M83.197,37.837c1.981,2.856,5.967,2.198,5.967,2.198l-2.3-1.981c0,0,5.694,3.371,11.573,2.203
								c0,0,0.863-2.157-1.779-5.756c-1.69-2.302-6.605-2.87-10.795-2.095c-4.191,0.774-6.013,2.596-6.149,5.603
								c-0.137,3.006-0.442,6.76-0.442,6.76l1.627,1.24C83.447,44.307,83.197,37.837,83.197,37.837z"/>
							<g>
								<g>
									<path style="fill:#1B1B28;" d="M89.015,45.775c0,0.409,0.331,0.74,0.74,0.74c0.409,0,0.74-0.331,0.74-0.74
										c0-0.409-0.331-0.74-0.74-0.74C89.346,45.035,89.015,45.366,89.015,45.775z"/>
									<circle style="fill:#FFFFFF;" cx="90.025" cy="45.572" r="0.271"/>
								</g>
								<g>
									<path style="fill:#1B1B28;" d="M94.737,45.775c0,0.409,0.331,0.74,0.74,0.74c0.409,0,0.74-0.331,0.74-0.74
										c0-0.409-0.331-0.74-0.74-0.74C95.068,45.035,94.737,45.366,94.737,45.775z"/>
									<circle style="fill:#FFFFFF;" cx="95.747" cy="45.572" r="0.271"/>
								</g>
								<path style="fill:#5B3D31;" d="M94.242,42.878c0.929-0.647,2.136-0.61,3.012,0.148c0.164,0.142,0.193,0.427,0.068,0.612
									c-0.127,0.189-0.369,0.22-0.533,0.078c-0.359-0.311-0.817-0.451-1.264-0.418c-0.226,0.017-0.45,0.077-0.657,0.181
									c-0.184,0.092-0.363,0.251-0.57,0.132c-0.049-0.028-0.092-0.07-0.125-0.12C94.058,43.319,94.065,43.001,94.242,42.878z"/>
								<path style="fill:#5B3D31;" d="M91.358,42.878c-1.065-0.647-2.45-0.61-3.454,0.148c-0.188,0.142-0.221,0.427-0.078,0.612
									c0.146,0.189,0.423,0.22,0.612,0.078c0.412-0.311,0.937-0.445,1.449-0.411c0.259,0.017,0.515,0.077,0.754,0.177
									c0.211,0.089,0.418,0.246,0.654,0.128c0.056-0.028,0.105-0.07,0.143-0.12C91.569,43.319,91.56,43.001,91.358,42.878z"/>
								<path style="fill:#C47B5B;" d="M92.904,49.981c0.404,0,0.824-0.088,1.229-0.302c0.189-0.099,0.262-0.333,0.162-0.522
									c-0.099-0.189-0.333-0.262-0.522-0.162c-0.979,0.513-2.07-0.014-2.382-0.442c-0.126-0.171-0.368-0.21-0.54-0.084
									s-0.21,0.368-0.084,0.54C91.135,49.511,91.975,49.981,92.904,49.981z"/>
								<path style="fill:#C47B5B;" d="M93.818,47.781c0.042,0,0.08-0.028,0.093-0.07c0.183-0.631-0.031-0.845-0.243-0.914
									c-0.215-0.069-0.473-0.013-0.766,0.167c-0.045,0.028-0.059,0.088-0.031,0.133c0.029,0.045,0.089,0.058,0.133,0.031
									c0.242-0.15,0.446-0.2,0.605-0.148c0.19,0.061,0.23,0.289,0.117,0.676c-0.015,0.051,0.015,0.104,0.066,0.12
									C93.799,47.78,93.809,47.781,93.818,47.781z"/>
							</g>
							<g>
								<path style="fill:#E7AC8D;" d="M77.894,48.576c0.989,1.179,2.55,1.499,3.486,0.714c0.936-0.785,0.893-2.378-0.096-3.557
									c-0.989-1.18-2.55-1.499-3.486-0.714C76.862,45.804,76.905,47.397,77.894,48.576z"/>
								<path style="fill:#C47B5B;" d="M78.444,45.596c0.42-0.222,0.981-0.212,1.499,0.029c0.258,0.12,0.445,0.266,0.573,0.446
									c0.169,0.239,0.216,0.538,0.122,0.782c-0.083,0.218-0.258,0.361-0.412,0.486c-0.111,0.091-0.217,0.176-0.276,0.278
									c-0.091,0.157-0.068,0.377,0.054,0.512c0.122,0.134,0.339,0.178,0.504,0.101c0.097-0.045,0.212-0.002,0.257,0.094
									c0.045,0.097,0.003,0.212-0.094,0.257c-0.106,0.049-0.221,0.073-0.337,0.073c-0.23,0-0.459-0.093-0.616-0.265
									c-0.235-0.259-0.277-0.665-0.101-0.966c0.095-0.163,0.239-0.28,0.366-0.383c0.128-0.104,0.248-0.202,0.295-0.325
									c0.047-0.123,0.017-0.287-0.077-0.42c-0.038-0.053-0.09-0.102-0.146-0.148c-0.192-0.002-0.432,0.057-0.554,0.19
									c-0.137,0.15-0.201,0.367-0.168,0.566c0.017,0.105-0.054,0.205-0.159,0.222c-0.011,0.002-0.021,0.003-0.032,0.003
									c-0.093,0-0.175-0.067-0.19-0.162c-0.053-0.318,0.046-0.651,0.264-0.89c0.081-0.089,0.183-0.149,0.289-0.198
									c-0.32-0.086-0.635-0.069-0.88,0.06c-0.302,0.16-0.531,0.572-0.375,0.908c0.044,0.097,0.002,0.212-0.094,0.257
									c-0.097,0.045-0.211,0.003-0.257-0.094C77.672,46.519,77.922,45.873,78.444,45.596z"/>
							</g>
						</g>
					</g>
					<g>
						<path style="fill:#F73859;" d="M75.948,40.451c0,0,27.172,0.68,27.282-0.768c0.111-1.448-3.359-2.155-3.359-2.155
							s1.375-10.016-12.444-10.016S75.948,40.451,75.948,40.451z"/>
						<path style="fill:#B52141;" d="M87.542,39.044l-5.026-0.176c0,0-0.998-4.646-5.394-3.945c0,0,4.108-1.929,6.153,3.127
							L87.542,39.044z"/>
					</g>
				</g>
			</g>
		</g>
	</g>
	<g>
		<g>
			<ellipse style="fill:#E1FFF3;" cx="364.522" cy="124.008" rx="78.253" ry="79.22"/>
			<g>
				<g>
					<path style="fill:#F73859;" d="M329.895,110.253h52.271c3.043,0,5.51,2.467,5.51,5.51v0.299h-57.781V110.253z"/>
					<polygon style="fill:#F73859;" points="287.324,101.081 346.358,101.081 350.338,110.253 287.324,110.253 					"/>
					
						<rect x="284.127" y="110.253" transform="matrix(-1 -1.224647e-16 1.224647e-16 -1 614.0222 226.314)" style="fill:#B52141;" width="45.767" height="5.809"/>
					<polygon style="fill:#B52141;" points="284.127,110.253 284.127,101.081 287.84,101.081 292.557,110.253 					"/>
					<g>
						<path style="fill:#C4EDDE;" d="M342.748,103.786c2.47,0,2.474,3.838,0,3.838C340.279,107.624,340.275,103.786,342.748,103.786
							z"/>
						<path style="fill:#C4EDDE;" d="M336.206,103.786c2.47,0,2.474,3.838,0,3.838C333.737,107.624,333.733,103.786,336.206,103.786
							z"/>
						<path style="fill:#C4EDDE;" d="M329.665,103.786c2.47,0,2.474,3.838,0,3.838C327.195,107.624,327.191,103.786,329.665,103.786
							z"/>
					</g>
					<g>
						<path style="fill:#C4EDDE;" d="M302.86,103.786c2.47,0,2.474,3.838,0,3.838C300.39,107.624,300.386,103.786,302.86,103.786z"
							/>
						<path style="fill:#C4EDDE;" d="M296.318,103.786c2.47,0,2.474,3.838,0,3.838C293.848,107.624,293.844,103.786,296.318,103.786
							z"/>
					</g>
				</g>
				<g>
					
						<rect x="284.127" y="116.062" transform="matrix(-1 -1.224647e-16 1.224647e-16 -1 626.0355 339.6185)" style="fill:#498E89;" width="57.781" height="107.495"/>
					
						<rect x="329.895" y="116.062" transform="matrix(-1 -1.224647e-16 1.224647e-16 -1 717.5703 339.6185)" style="fill:#7AC7C4;" width="57.781" height="107.495"/>
					<g>
						<circle style="fill:#498E89;" cx="358.785" cy="162.863" r="24.565"/>
						<circle style="fill:#C4EDDE;" cx="358.785" cy="162.863" r="18.438"/>
					</g>
					<g>
						
							<rect x="334.22" y="120.317" transform="matrix(-1 -1.224647e-16 1.224647e-16 -1 718.1647 244.4806)" style="fill:#498E89;" width="49.725" height="3.847"/>
						
							<rect x="334.22" y="125.715" transform="matrix(-1 -1.224647e-16 1.224647e-16 -1 718.1647 252.6613)" style="fill:#498E89;" width="49.725" height="1.23"/>
					</g>
				</g>
			</g>
			<g>
				
					<rect x="326.757" y="201.986" transform="matrix(-1 -1.224647e-16 1.224647e-16 -1 693.9332 425.543)" style="fill:#B52141;" width="40.418" height="21.571"/>
				
					<rect x="326.757" y="201.986" transform="matrix(-1 -1.224647e-16 1.224647e-16 -1 679.5397 425.543)" style="fill:#F73859;" width="26.025" height="21.571"/>
				<polygon style="fill:#222B3D;" points="358.542,201.986 356.259,194.487 335.627,194.487 333.544,201.986 336.161,201.986 
					337.706,196.675 354.375,196.675 356.091,201.986 				"/>
				
					<rect x="345.882" y="201.986" transform="matrix(-1 -1.224647e-16 1.224647e-16 -1 693.8876 425.543)" style="fill:#222B3D;" width="2.124" height="21.571"/>
				
					<rect x="338.405" y="210.158" transform="matrix(-1.836970e-16 1 -1 -1.836970e-16 552.239 -126.696)" style="fill:#222B3D;" width="2.124" height="5.228"/>
				
					<rect x="330.929" y="201.986" transform="matrix(-1 -1.224647e-16 1.224647e-16 -1 663.9824 425.543)" style="fill:#222B3D;" width="2.124" height="21.571"/>
			</g>
			<g>
				<g>
					<g>
						<path style="fill:#1B1B28;" d="M390.316,217.375c-4.902,3.668-13.223,2.567-13.105,7.053
							c10.881,1.06,16.368-0.161,16.368-0.161l3.789-0.513c0,0,1.437-3.671,0.394-6.628L390.316,217.375z"/>
						<path style="fill:#384259;" d="M422.753,184.772c0,0-28.43,1.056-35.228,2.464c0,0,3.474,18.568,10.237,29.891
							c-1.218,1.329-5.163,1.32-7.446,0.248c0,0-18.859-28.555-19.271-35.595c-0.412-7.04,32.756-13.728,53.975-12.144
							L422.753,184.772z"/>
					</g>
					<g>
						<path style="fill:#1B1B28;" d="M451.816,205.403c2.246,5.696-1.01,13.432,3.348,14.501
							c3.892-10.216,4.161-15.831,4.161-15.831l0.504-3.79c0,0-3.162-2.355-6.289-2.128L451.816,205.403z"/>
						<path style="fill:#384259;" d="M432.415,184.958c-4.749,7.16-11.753,17.999-13.144,21.689c0,0,20.611-3.381,34.269-8.492
							c0.691,1.581,0.517,5.569-0.724,7.654c0,0-39.665,15.72-46.909,12.344c-7.243-3.376,2.71-33.381,15.37-48.014l16.149-0.05l0,0
							C437.084,175.4,435.357,180.523,432.415,184.958z"/>
					</g>
				</g>
				<g>
					<g>
						<path style="fill:#7AC7C4;" d="M417.893,110.253l-7.393,2.411c0,0-3.632,31.903-5.44,56.34
							c23.278,4.922,32.342,0.306,32.342,0.306c-1.383-28.774-4.901-56.646-4.901-56.646l-7.343-2.411H417.893z"/>
					</g>
					<g>
						<g>
							<g>
								<path style="fill:#9E6C52;" d="M410.66,124.164l-5.683-8.124c-4.696,1.17-11.97,3.203-17.186,3.337l-19.306-15.46
									l-3.962,3.266c0,0,16.759,17.576,21.969,19.916C393.72,130.363,410.66,124.164,410.66,124.164z"/>
							</g>
							<path style="fill:#9E6C52;" d="M368.56,103.985c0,0-5.908-4.546-8.214-1.178s-1.625,6.395,0.12,6.897
								c1.745,0.502,0.706-0.917,0.573-1.204c-0.134-0.287,3.374,1.625,4.795,1.254C367.255,109.383,368.919,105.057,368.56,103.985
								z"/>
						</g>
						<path style="fill:#7AC7C4;" d="M410.5,112.663c0,0-10.768,3.208-16.104,4.927l5.237,11.332c0,0,7.073-0.829,12.164-3.206
							l0.243-0.467L410.5,112.663z"/>
					</g>
					<g>
						<g>
							<path style="fill:#384259;" d="M410.384,129.95c-0.418,7.172-2.839,10.813-2.839,10.813
								c-1.414,7.531-2.716,29.327-2.716,29.327c20.022,5.417,32.598,0,32.598,0c0.109-12.382-1.9-28.934-1.9-28.934
								c-1.395-0.513-3.057-5.599-3.448-10.966C424.788,128.596,417.556,128.492,410.384,129.95z"/>
							<path style="fill:#222B3D;" d="M428.789,138.298h-16.231c0,0-4.435,9.804,8.116,9.804
								C433.471,148.102,428.789,138.298,428.789,138.298z"/>
						</g>
						<g>
							<path style="fill:#222B3D;" d="M415.204,111.13l1.213,21.953c0.039,0.711-0.466,1.336-1.169,1.447l0,0
								c-0.84,0.132-1.6-0.516-1.603-1.366l-0.069-21.503L415.204,111.13z"/>
							<path style="fill:#222B3D;" d="M427.829,111.13l-1.774,22.071c-0.052,0.654,0.411,1.236,1.059,1.331l0,0
								c0.727,0.107,1.387-0.435,1.424-1.169l1.086-21.643L427.829,111.13z"/>
						</g>
					</g>
					<g>
						<g>
							<g>
								<path style="fill:#9E6C52;" d="M435.008,114.879l-0.541,20.332c2.486,4.152,6.548,10.52,8.194,15.471l-9.172,22.969
									l4.278,2.84c0,0,11.938-21.149,12.66-26.814C451.447,141.812,435.008,114.879,435.008,114.879z"/>
							</g>
							<path style="fill:#9E6C52;" d="M433.532,173.56c0,0-2.155,7.136,1.812,8.098c3.967,0.962,6.555-0.749,6.406-2.558
								c-0.149-1.81-1.107-0.335-1.329-0.108c-0.221,0.227,0.323-3.731-0.528-4.928C439.042,172.865,434.407,172.844,433.532,173.56
								z"/>
						</g>
						<path style="fill:#7AC7C4;" d="M432.501,112.663c6.018,2.605,11.94,16.513,11.94,16.513l-10.046,6.021L432.501,112.663z"/>
					</g>
				</g>
				<g>
					<g>
						<g>
							<path style="fill:#5B3D31;" d="M409.702,90.851c2.89,4.595,8.797,6.033,11.622,10.647c0.616,1.006,1.391,2.139,2.719,2.114
								c1.223-0.023,2.001-1.118,2.629-2.023c1.78-2.566,3.175-5.395,4.18-8.35c0.956-2.813,1.917-6.06,0.653-8.935
								c-0.444-1.011-1.358-1.705-2.382-2.118c0.419-0.518-0.48-1.499-1.5-1.156c-1.44-1.624-5.103-2.742-4.912-2.38
								c-2.335-1.072-7.017-0.648-6.75-0.343c-1.403-0.365-8.591,2.223-7.774,7.961C408.36,87.743,408.912,89.594,409.702,90.851z"
								/>
							<path style="fill:#9E6C52;" d="M426.092,85.245c-3.28-6.013-14.818-3.96-15.715,0.82c-1.845,9.833-0.444,13.87,2.289,16.193
								c3.163,2.688,5.227,2.346,5.227,7.994c1.196,3.006,5.785,3.416,7.265,0c-0.091-7.482,2.476-13.152,2.476-13.152
								S427.444,87.724,426.092,85.245z"/>
							<path style="fill:#5B3D31;" d="M424.862,86.578c-1.981,2.856-5.967,2.198-5.967,2.198l2.3-1.981
								c0,0-5.694,3.371-11.573,2.203c0,0-0.863-2.157,1.779-5.756c1.69-2.302,6.605-2.87,10.796-2.095
								c4.191,0.774,6.013,2.596,6.149,5.603c0.137,3.006,0.442,6.76,0.442,6.76l-1.626,1.24
								C424.612,93.048,424.862,86.578,424.862,86.578z"/>
							<g>
								<g>
									<path style="fill:#1B1B28;" d="M419.044,94.515c0,0.409-0.331,0.74-0.74,0.74c-0.409,0-0.74-0.331-0.74-0.74
										c0-0.409,0.331-0.74,0.74-0.74C418.713,93.775,419.044,94.106,419.044,94.515z"/>
									<circle style="fill:#FFFFFF;" cx="418.033" cy="94.313" r="0.271"/>
								</g>
								<g>
									<path style="fill:#1B1B28;" d="M413.322,94.515c0,0.409-0.331,0.74-0.74,0.74c-0.409,0-0.74-0.331-0.74-0.74
										c0-0.409,0.331-0.74,0.74-0.74C412.991,93.775,413.322,94.106,413.322,94.515z"/>
									<circle style="fill:#FFFFFF;" cx="412.311" cy="94.313" r="0.271"/>
								</g>
								<path style="fill:#5B3D31;" d="M413.817,91.619c-0.929-0.647-2.136-0.61-3.012,0.148c-0.164,0.142-0.193,0.427-0.068,0.612
									c0.127,0.189,0.369,0.22,0.533,0.078c0.36-0.311,0.817-0.451,1.265-0.418c0.226,0.017,0.449,0.077,0.657,0.181
									c0.184,0.091,0.363,0.251,0.569,0.132c0.049-0.028,0.092-0.07,0.125-0.12C414.001,92.06,413.994,91.742,413.817,91.619z"/>
								<path style="fill:#5B3D31;" d="M416.701,91.619c1.065-0.647,2.449-0.61,3.454,0.148c0.188,0.142,0.221,0.427,0.078,0.612
									c-0.146,0.189-0.423,0.22-0.611,0.078c-0.412-0.311-0.937-0.445-1.449-0.411c-0.259,0.017-0.515,0.077-0.754,0.177
									c-0.211,0.089-0.418,0.246-0.654,0.128c-0.056-0.028-0.105-0.07-0.143-0.12C416.49,92.06,416.499,91.742,416.701,91.619z"/>
								<path style="fill:#77442D;" d="M415.154,98.721c-0.403,0-0.824-0.088-1.229-0.302c-0.189-0.099-0.262-0.333-0.162-0.522
									c0.099-0.189,0.333-0.262,0.522-0.162c0.979,0.513,2.07-0.014,2.382-0.442c0.126-0.171,0.368-0.21,0.54-0.084
									c0.172,0.126,0.21,0.368,0.084,0.54C416.924,98.252,416.084,98.721,415.154,98.721z"/>
								<path style="fill:#77442D;" d="M414.241,96.521c-0.042,0-0.08-0.028-0.093-0.07c-0.183-0.631,0.031-0.845,0.243-0.914
									c0.215-0.069,0.473-0.013,0.766,0.168c0.045,0.028,0.059,0.088,0.031,0.133c-0.029,0.045-0.089,0.059-0.133,0.031
									c-0.242-0.149-0.446-0.2-0.605-0.148c-0.19,0.061-0.23,0.289-0.117,0.676c0.015,0.051-0.015,0.105-0.066,0.12
									C414.259,96.52,414.25,96.521,414.241,96.521z"/>
							</g>
							<g>
								<path style="fill:#9E6C52;" d="M430.165,97.317c-0.989,1.179-2.55,1.499-3.486,0.714c-0.936-0.785-0.893-2.378,0.096-3.557
									c0.989-1.179,2.55-1.499,3.486-0.714C431.197,94.545,431.154,96.137,430.165,97.317z"/>
								<path style="fill:#77442D;" d="M429.615,94.337c-0.42-0.222-0.981-0.212-1.499,0.029c-0.258,0.12-0.445,0.266-0.573,0.446
									c-0.169,0.239-0.216,0.538-0.122,0.782c0.083,0.218,0.258,0.36,0.412,0.486c0.111,0.091,0.217,0.176,0.276,0.278
									c0.091,0.157,0.068,0.377-0.054,0.512c-0.122,0.134-0.339,0.178-0.504,0.102c-0.097-0.045-0.212-0.002-0.257,0.094
									c-0.045,0.097-0.003,0.212,0.094,0.257c0.106,0.049,0.221,0.073,0.337,0.073c0.229,0,0.459-0.093,0.616-0.265
									c0.235-0.259,0.277-0.665,0.102-0.966c-0.095-0.163-0.239-0.28-0.366-0.384c-0.128-0.104-0.248-0.202-0.295-0.325
									c-0.047-0.123-0.017-0.287,0.077-0.42c0.038-0.053,0.089-0.102,0.146-0.148c0.192-0.002,0.432,0.057,0.554,0.19
									c0.137,0.15,0.201,0.366,0.168,0.566c-0.017,0.105,0.054,0.205,0.159,0.222c0.011,0.002,0.021,0.003,0.032,0.003
									c0.093,0,0.175-0.067,0.19-0.162c0.053-0.318-0.046-0.651-0.264-0.89c-0.081-0.089-0.183-0.149-0.289-0.198
									c0.32-0.086,0.635-0.069,0.88,0.06c0.302,0.16,0.531,0.572,0.375,0.908c-0.045,0.097-0.002,0.212,0.094,0.257
									c0.097,0.045,0.211,0.003,0.257-0.094C430.387,95.26,430.137,94.613,429.615,94.337z"/>
							</g>
						</g>
					</g>
					<g>
						<path style="fill:#F73859;" d="M432.113,88.151c0,0-27.181,0.012-27.255-1.439s3.411-2.072,3.411-2.072
							s-1.128-10.047,12.686-9.707C434.77,75.273,432.113,88.151,432.113,88.151z"/>
						<path style="fill:#B52141;" d="M420.557,86.459l5.029-0.052c0,0,1.112-4.62,5.489-3.811c0,0-4.059-2.029-6.228,2.974
							L420.557,86.459z"/>
					</g>
				</g>
			</g>
		</g>
	</g>
	<g>
		<g>
			<ellipse style="fill:#E1FFF3;" cx="376.277" cy="357.952" rx="78.253" ry="94.794"/>
			<g>
				<g>
					<rect x="318.379" y="358.948" style="fill:#498E89;" width="3.881" height="97.013"/>
					<rect x="328.152" y="358.948" style="fill:#498E89;" width="3.881" height="97.013"/>
					<rect x="337.924" y="358.948" style="fill:#498E89;" width="3.881" height="97.013"/>
					<rect x="327.026" y="378.964" style="fill:#498E89;" width="6.132" height="25.218"/>
				</g>
				<g>
					<path style="fill:#498E89;" d="M354.662,360.601h-51.317c-2.047,0-3.707-1.66-3.707-3.707v-65.739
						c0-2.047,1.66-3.707,3.707-3.707h51.317c2.242,0,4.059,1.817,4.059,4.059v65.035
						C358.721,358.784,356.904,360.601,354.662,360.601z"/>
					<path style="fill:#7AC7C4;" d="M354.662,360.601h-40.736v-73.153h40.736c2.242,0,4.059,1.817,4.059,4.059v65.035
						C358.721,358.784,356.904,360.601,354.662,360.601z"/>
					<g>
						<path style="fill:#FFFFFF;" d="M322.261,311.681h28.126c0,0-2.289-14.631-14.063-14.631
							C324.549,297.05,322.261,311.681,322.261,311.681z"/>
						<g>
							<path style="fill:#384259;" d="M336.324,310.641c-0.124,0-0.244-0.069-0.303-0.188l-4.561-9.163
								c-0.083-0.167-0.015-0.37,0.152-0.453c0.165-0.081,0.371-0.016,0.453,0.152l4.561,9.163c0.083,0.167,0.015,0.37-0.152,0.453
								C336.426,310.629,336.375,310.641,336.324,310.641z"/>
							<path style="fill:#222B3D;" d="M337.913,310.303c0,0.877-0.711,1.589-1.589,1.589c-0.878,0-1.589-0.711-1.589-1.589
								c0-0.878,0.711-1.589,1.589-1.589C337.202,308.714,337.913,309.426,337.913,310.303z"/>
						</g>
					</g>
					<g>
						<circle style="fill:#F73859;" cx="327.612" cy="319.26" r="2.48"/>
						<path style="fill:#F73859;" d="M338.805,319.26c0,1.37-1.111,2.48-2.48,2.48c-1.37,0-2.48-1.111-2.48-2.48
							s1.111-2.48,2.48-2.48C337.694,316.78,338.805,317.891,338.805,319.26z"/>
						<circle style="fill:#F73859;" cx="345.036" cy="319.26" r="2.48"/>
					</g>
					<polygon style="fill:#498E89;" points="337.913,326.151 331.402,337.726 336.324,337.726 333.844,349.302 340.393,335.349 
						335.743,335.349 					"/>
				</g>
			</g>
			<g>
				<g>
					<path style="fill:#1B1B28;" d="M415.84,451.249c-3.776,2.774-10.135,1.876-10.074,5.309c8.318,0.884,12.525-0.013,12.525-0.013
						l2.903-0.367c0,0,1.062-2.798,0.284-5.068L415.84,451.249z"/>
					<path style="fill:#1B1B28;" d="M386.836,451.249c-3.776,2.774-10.135,1.876-10.075,5.309
						c8.319,0.884,12.525-0.013,12.525-0.013l2.903-0.367c0,0,1.062-2.798,0.284-5.068L386.836,451.249z"/>
					<g>
						<g>
							<path style="fill:#384259;" d="M416.729,351.512l-31.577,0.503c0,0-4.127,40.4,1.699,99.341
								c2.437,1.475,3.183,1.314,5.622-0.246c0,0,3.726-48.896,7.192-84.026c0.618-0.021,8.844,50.063,16.176,84.165
								c2.409,1.493,3.171,1.403,5.637-0.139C421.477,451.109,418.643,415.316,416.729,351.512z"/>
						</g>
					</g>
				</g>
				<g>
					<g>
						<g>
							<path style="fill:#EFAD9C;" d="M395.731,306.315l-5.683-8.124c-4.696,1.17-11.97,3.203-17.186,3.337l-19.306-15.46
								l-3.962,3.266c0,0,16.759,17.576,21.969,19.915C378.791,312.515,395.731,306.315,395.731,306.315z"/>
						</g>
						<path style="fill:#EFAD9C;" d="M353.632,286.136c0,0-5.908-4.546-8.215-1.178s-1.625,6.395,0.12,6.897
							c1.745,0.503,0.706-0.917,0.573-1.204c-0.134-0.287,3.374,1.625,4.795,1.254C352.326,291.534,353.991,287.208,353.632,286.136
							z"/>
					</g>
					<g>
						<g>
							<path style="fill:#F73859;" d="M397.406,295.791c-2.787,0.249-5.22,1.082-7.358,2.4c0,0-3.29,31.693-5.09,56.015
								c23.169,4.899,31.833-0.662,31.833-0.662c-1.377-28.639-4.845-55.353-4.845-55.353c-2.454-1.624-4.891-2.436-7.309-2.4
								H397.406z"/>
						</g>
						<g>
							<path style="fill:#384259;" d="M384.674,358.072c0.595-10.283,1.5-20.993,2.666-32.065l4.044-5.978l1.48-23.22
								c0.598-0.273,1.205-0.462,1.856-0.574l0.01,22.347h10.75l2.299-22.367c0.698,0.157,1.343,0.392,1.921,0.724v23.093
								l5.275,7.029c0.942,10.577,1.608,20.925,1.957,31.011H384.674z"/>
							<path style="fill:#222B3D;" d="M393.93,324.989h10.955c0,0,1.55,4.547,5.788,7.441v3.411h-21.581v-2.894
								C389.092,332.948,393.413,330.674,393.93,324.989z"/>
						</g>
					</g>
					<g>
						<path style="fill:#EFAD9C;" d="M423.585,368.454c0.05,0.374,0.07,0.945,0.478,1.125c0.415,0.183,0.789-0.158,0.891-0.546
							c0.139-0.528,0.149-1.12,0.217-1.661c0.023-0.182,0.046-0.364,0.068-0.546c0.378,1.064,0.592,2.185,0.622,3.316
							c0.02,0.733-0.033,1.466-0.165,2.188c-0.101,0.551-0.248,1.225,0.287,1.609c0.273,0.195,0.569,0.171,0.82,0.029
							c0.293,0.133,0.658,0.097,0.944-0.128c0.079-0.062,0.148-0.136,0.213-0.215c0.083,0.105,0.222,0.163,0.371,0.073
							c0.443-0.269,0.74-0.675,0.951-1.134c0.102,0.01,0.208-0.023,0.28-0.133c1.351-2.075,1.736-4.702,1.119-7.093
							c-0.289-1.118-0.811-2.426-1.683-3.221c-1.076-0.982-2.536-0.599-3.761-0.164c-0.034,0.012-0.059,0.031-0.085,0.051
							c-0.131-0.09-0.319-0.092-0.415,0.089C423.706,364.035,423.29,366.271,423.585,368.454z"/>
						<path style="fill:#EFAD9C;" d="M411.946,298.191c0,0,16.974,16.25,17.701,64.985h-5.301c0,0-3.274-29.434-10.858-47.154
							c-1.297-3.031-1.866-6.325-1.773-9.621L411.946,298.191z"/>
					</g>
				</g>
				<g>
					<g>
						<g>
							<path style="fill:#5B3D31;" d="M410.955,269.965c-2.183-4.295-8.334-9.041-17.418-5.656
								c-4.737,1.991-7.122,7.659-4.284,12.171c2.877,4.574,8.756,6.005,11.568,10.597c0.613,1.002,1.384,2.129,2.706,2.104
								c1.217-0.023,1.992-1.112,2.617-2.013c1.772-2.554,3.16-5.369,4.16-8.311C411.256,276.059,412.213,272.827,410.955,269.965z"
								/>
							<path style="fill:#EFAD9C;" d="M405.566,270.901c-3.264-5.985-14.749-3.942-15.641,0.816
								c-1.836,9.787-0.442,13.805,2.278,16.117c3.148,2.676,5.202,2.335,5.202,7.957c1.19,2.992,5.758,3.4,7.231,0
								c-0.091-7.447,2.465-13.09,2.465-13.09S406.912,273.369,405.566,270.901z"/>
							<path style="fill:#5B3D31;" d="M404.342,272.227c-1.972,2.843-5.939,2.188-5.939,2.188l2.289-1.972
								c0,0-5.667,3.355-11.518,2.193c0,0-0.859-2.147,1.771-5.729c1.682-2.291,6.574-2.856,10.745-2.085
								c4.171,0.771,5.984,2.584,6.12,5.576c0.136,2.992,0.44,6.729,0.44,6.729l-1.619,1.235
								C404.093,278.667,404.342,272.227,404.342,272.227z"/>
							<g>
								<g>
									<path d="M398.551,280.127c0,0.407-0.33,0.736-0.736,0.736c-0.407,0-0.736-0.33-0.736-0.736c0-0.407,0.33-0.736,0.736-0.736
										C398.222,279.391,398.551,279.721,398.551,280.127z"/>
									<path style="fill:#FFFFFF;" d="M397.815,279.926c0,0.149-0.121,0.27-0.27,0.27s-0.27-0.121-0.27-0.27
										c0-0.149,0.121-0.27,0.27-0.27S397.815,279.777,397.815,279.926z"/>
								</g>
								<g>
									<path d="M392.856,280.127c0,0.407-0.33,0.736-0.736,0.736c-0.407,0-0.736-0.33-0.736-0.736c0-0.407,0.33-0.736,0.736-0.736
										C392.527,279.391,392.856,279.721,392.856,280.127z"/>
									<path style="fill:#FFFFFF;" d="M392.12,279.926c0,0.149-0.121,0.27-0.27,0.27s-0.27-0.121-0.27-0.27
										c0-0.149,0.121-0.27,0.27-0.27S392.12,279.777,392.12,279.926z"/>
								</g>
								<path style="fill:#5B3D31;" d="M393.349,277.245c-0.925-0.644-2.126-0.607-2.998,0.147
									c-0.163,0.141-0.192,0.425-0.068,0.609c0.127,0.188,0.367,0.219,0.531,0.078c0.358-0.309,0.814-0.449,1.258-0.416
									c0.225,0.017,0.447,0.077,0.654,0.18c0.183,0.091,0.361,0.25,0.567,0.131c0.049-0.028,0.091-0.07,0.125-0.12
									C393.533,277.683,393.525,277.367,393.349,277.245z"/>
								<path style="fill:#5B3D31;" d="M396.219,277.245c1.06-0.644,2.438-0.607,3.438,0.147c0.187,0.141,0.22,0.425,0.077,0.609
									c-0.145,0.188-0.421,0.219-0.609,0.078c-0.41-0.309-0.933-0.443-1.442-0.409c-0.258,0.017-0.512,0.077-0.75,0.177
									c-0.21,0.088-0.417,0.245-0.651,0.127c-0.056-0.028-0.104-0.07-0.143-0.119
									C396.009,277.683,396.018,277.367,396.219,277.245z"/>
								<path style="fill:#C16B5B;" d="M394.68,284.314c-0.402,0-0.82-0.088-1.223-0.3c-0.188-0.099-0.261-0.331-0.161-0.519
									c0.099-0.188,0.331-0.26,0.519-0.161c0.974,0.511,2.06-0.014,2.371-0.44c0.125-0.171,0.366-0.209,0.538-0.084
									c0.172,0.125,0.209,0.366,0.084,0.538C396.442,283.846,395.605,284.314,394.68,284.314z"/>
								<path style="fill:#C16B5B;" d="M393.771,282.124c-0.042,0-0.08-0.027-0.092-0.07c-0.182-0.628,0.031-0.841,0.242-0.909
									c0.214-0.068,0.471-0.013,0.763,0.167c0.045,0.028,0.059,0.087,0.031,0.133c-0.029,0.045-0.088,0.058-0.133,0.031
									c-0.241-0.149-0.444-0.199-0.602-0.147c-0.189,0.061-0.229,0.288-0.117,0.673c0.015,0.051-0.015,0.104-0.066,0.119
									C393.789,282.123,393.78,282.124,393.771,282.124z"/>
							</g>
							<g>
								<path style="fill:#EFAD9C;" d="M409.621,282.916c-0.984,1.174-2.538,1.492-3.47,0.711c-0.932-0.781-0.889-2.366,0.095-3.54
									c0.984-1.174,2.538-1.492,3.47-0.711C410.648,280.157,410.605,281.742,409.621,282.916z"/>
								<path style="fill:#C16B5B;" d="M409.073,279.95c-0.418-0.221-0.977-0.211-1.492,0.029c-0.257,0.119-0.443,0.264-0.571,0.444
									c-0.168,0.237-0.215,0.536-0.122,0.778c0.083,0.217,0.257,0.359,0.41,0.483c0.111,0.09,0.216,0.176,0.275,0.277
									c0.091,0.156,0.068,0.375-0.054,0.51c-0.121,0.134-0.337,0.177-0.502,0.101c-0.097-0.045-0.211-0.002-0.255,0.094
									c-0.044,0.096-0.003,0.211,0.094,0.255c0.106,0.049,0.22,0.072,0.335,0.072c0.228,0,0.457-0.093,0.613-0.264
									c0.234-0.257,0.276-0.662,0.101-0.962c-0.094-0.162-0.238-0.279-0.364-0.382c-0.127-0.103-0.247-0.201-0.293-0.323
									c-0.047-0.122-0.017-0.286,0.077-0.418c0.038-0.053,0.089-0.101,0.146-0.147c0.191-0.002,0.43,0.057,0.551,0.189
									c0.136,0.149,0.2,0.365,0.168,0.564c-0.017,0.105,0.054,0.204,0.159,0.221c0.01,0.002,0.021,0.003,0.031,0.003
									c0.092,0,0.174-0.067,0.189-0.161c0.052-0.317-0.046-0.648-0.263-0.886c-0.081-0.088-0.182-0.148-0.288-0.197
									c0.318-0.086,0.632-0.069,0.876,0.06c0.301,0.159,0.528,0.57,0.373,0.904c-0.044,0.097-0.002,0.211,0.094,0.255
									c0.097,0.044,0.21,0.003,0.255-0.094C409.841,280.869,409.592,280.225,409.073,279.95z"/>
							</g>
						</g>
					</g>
					<g>
						<path style="fill:#F73859;" d="M411.341,274.967c0,0-27.18,0.012-27.255-1.439c-0.075-1.45,3.411-2.072,3.411-2.072
							s-1.128-10.047,12.686-9.707C413.998,262.089,411.341,274.967,411.341,274.967z"/>
						<path style="fill:#B52141;" d="M399.784,273.275l5.029-0.052c0,0,1.112-4.62,5.489-3.811c0,0-4.059-2.029-6.228,2.974
							L399.784,273.275z"/>
					</g>
				</g>
			</g>
		</g>
	</g>
	<g>
		<g>
			<ellipse style="fill:#E1FFF3;" cx="120.716" cy="362.648" rx="78.253" ry="94.794"/>
			<g>
				<g>
					<path style="fill:#498E89;" d="M198.201,450.987h0.413c0.913,0,1.51-0.74,1.332-1.654l-25.753-132.4
						c-0.178-0.913-1.062-1.654-1.975-1.654h-0.413c-0.913,0-1.51,0.74-1.332,1.654l25.753,132.4
						C196.404,450.246,197.288,450.987,198.201,450.987z"/>
					<path style="fill:#498E89;" d="M171.468,450.987h0.413c0.913,0,1.51-0.74,1.332-1.654l-25.753-132.4
						c-0.178-0.913-1.062-1.654-1.975-1.654h-0.413c-0.913,0-1.51,0.74-1.332,1.654l25.753,132.4
						C169.67,450.246,170.554,450.987,171.468,450.987z"/>
					<path style="fill:#498E89;" d="M169.837,433.037h23.426c0.913,0,1.51-0.74,1.332-1.654l0,0
						c-0.178-0.913-1.062-1.654-1.975-1.654h-23.426c-0.913,0-1.51,0.74-1.332,1.654l0,0
						C168.039,432.297,168.923,433.037,169.837,433.037z"/>
					<path style="fill:#498E89;" d="M165.843,412.504h23.426c0.913,0,1.51-0.74,1.332-1.654l0,0
						c-0.178-0.913-1.062-1.654-1.975-1.654H165.2c-0.913,0-1.51,0.74-1.332,1.654l0,0
						C164.045,411.764,164.93,412.504,165.843,412.504z"/>
					<path style="fill:#498E89;" d="M161.849,391.972h23.426c0.913,0,1.51-0.74,1.332-1.654l0,0
						c-0.178-0.913-1.062-1.654-1.975-1.654h-23.427c-0.913,0-1.51,0.74-1.332,1.654l0,0
						C160.051,391.231,160.936,391.972,161.849,391.972z"/>
					<path style="fill:#498E89;" d="M157.855,371.439h23.426c0.913,0,1.51-0.74,1.332-1.654l0,0
						c-0.178-0.913-1.062-1.654-1.975-1.654h-23.426c-0.913,0-1.51,0.74-1.332,1.654l0,0
						C156.058,370.699,156.942,371.439,157.855,371.439z"/>
					<path style="fill:#498E89;" d="M153.862,350.906h23.427c0.913,0,1.51-0.74,1.332-1.654l0,0
						c-0.178-0.913-1.062-1.654-1.975-1.654h-23.426c-0.913,0-1.51,0.74-1.332,1.654l0,0
						C152.064,350.166,152.948,350.906,153.862,350.906z"/>
					<path style="fill:#498E89;" d="M149.868,330.374h23.426c0.913,0,1.51-0.74,1.332-1.654l0,0
						c-0.178-0.913-1.062-1.654-1.975-1.654h-23.426c-0.913,0-1.51,0.74-1.332,1.654l0,0
						C148.07,329.633,148.954,330.374,149.868,330.374z"/>
				</g>
				<g>
					<path style="fill:#7AC7C4;" d="M119.276,450.987h-0.413c-0.913,0-1.51-0.74-1.332-1.654l25.753-132.4
						c0.178-0.913,1.062-1.654,1.975-1.654h0.413c0.913,0,1.51,0.74,1.332,1.654l-25.753,132.4
						C121.074,450.246,120.189,450.987,119.276,450.987z"/>
					<path style="fill:#7AC7C4;" d="M146.01,450.987h-0.413c-0.913,0-1.51-0.74-1.332-1.654l25.753-132.4
						c0.178-0.913,1.062-1.654,1.975-1.654h0.413c0.913,0,1.51,0.74,1.332,1.654l-25.753,132.4
						C147.808,450.246,146.923,450.987,146.01,450.987z"/>
					<path style="fill:#7AC7C4;" d="M147.641,433.037h-23.427c-0.913,0-1.51-0.74-1.332-1.654l0,0
						c0.178-0.913,1.062-1.654,1.975-1.654h23.427c0.913,0,1.51,0.74,1.332,1.654l0,0
						C149.439,432.297,148.554,433.037,147.641,433.037z"/>
					<path style="fill:#7AC7C4;" d="M151.635,412.504h-23.426c-0.913,0-1.51-0.74-1.332-1.654l0,0
						c0.178-0.913,1.062-1.654,1.975-1.654h23.426c0.913,0,1.51,0.74,1.332,1.654l0,0
						C153.432,411.764,152.548,412.504,151.635,412.504z"/>
					<path style="fill:#7AC7C4;" d="M155.629,391.972h-23.426c-0.913,0-1.51-0.74-1.332-1.654l0,0
						c0.178-0.913,1.062-1.654,1.975-1.654h23.426c0.913,0,1.51,0.74,1.332,1.654l0,0
						C157.426,391.231,156.542,391.972,155.629,391.972z"/>
					<path style="fill:#7AC7C4;" d="M159.622,371.439h-23.426c-0.913,0-1.51-0.74-1.332-1.654l0,0
						c0.178-0.913,1.062-1.654,1.975-1.654h23.426c0.913,0,1.51,0.74,1.332,1.654l0,0
						C161.42,370.699,160.536,371.439,159.622,371.439z"/>
					<path style="fill:#7AC7C4;" d="M163.616,350.906H140.19c-0.913,0-1.51-0.74-1.332-1.654l0,0
						c0.178-0.913,1.062-1.654,1.975-1.654h23.426c0.913,0,1.51,0.74,1.332,1.654l0,0
						C165.414,350.166,164.529,350.906,163.616,350.906z"/>
					<path style="fill:#7AC7C4;" d="M167.61,330.374h-23.426c-0.913,0-1.51-0.74-1.332-1.654l0,0
						c0.178-0.913,1.062-1.654,1.975-1.654h23.426c0.913,0,1.51,0.74,1.332,1.654l0,0
						C169.408,329.633,168.523,330.374,167.61,330.374z"/>
				</g>
			</g>
			<g>
				<g>
					<g>
						<g>
							<g>
								<path style="fill:#EFAD9C;" d="M87.072,301.146c0,0,15.246,13.156,60.391,14.134l0.039-5.305c0,0-27.615-1.203-44.37-10.295
									L87.072,301.146z"/>
								<path style="fill:#EFAD9C;" d="M146.414,310.358c-0.182,0.095-0.181,0.283-0.092,0.415c-0.019,0.025-0.039,0.05-0.051,0.084
									c-0.444,1.223-0.837,2.68,0.137,3.764c0.789,0.878,2.094,1.411,3.21,1.708c2.388,0.635,5.02,0.27,7.106-1.067
									c0.11-0.07,0.144-0.177,0.135-0.279c0.461-0.208,0.869-0.502,1.141-0.943c0.091-0.148,0.035-0.288-0.07-0.371
									c0.08-0.064,0.154-0.133,0.217-0.212c0.227-0.285,0.266-0.65,0.135-0.944c0.145-0.249,0.171-0.546-0.023-0.82
									c-0.38-0.538-1.056-0.396-1.607-0.299c-0.723,0.126-1.457,0.173-2.19,0.149c-1.132-0.038-2.251-0.261-3.313-0.647
									c0.182-0.021,0.365-0.043,0.547-0.064c0.542-0.064,1.134-0.069,1.664-0.205c0.388-0.099,0.732-0.471,0.552-0.887
									c-0.177-0.41-0.748-0.433-1.122-0.486C150.607,308.942,148.367,309.341,146.414,310.358z"/>
							</g>
							<path style="fill:#7AC7C4;" d="M100.125,295.994c0,0,4.863,3.902,12.8,6.658l-2.093,9.261c0,0-9.978-1.668-16.97-5.796
								L100.125,295.994z"/>
						</g>
					</g>
					<g>
						<g>
							<g>
								<path style="fill:#1B1B28;" d="M64.241,449.928c0,0-3.049,4.776-1.94,6.402c1.109,1.627,9.537,1.479,10.942,0
									c1.405-1.479-2.122-6.205-2.122-6.205L64.241,449.928z"/>
								<path style="fill:#384259;" d="M73.424,346.908l17.034,0.917c-0.105,4.976,0.29,7.99-0.908,13.196
									c0,0-5.164,19.895-8.544,36.975c-1.932,14.844-9.885,52.128-9.885,52.128s-4.014,2.065-6.88-0.197
									c1.491-18.02,3.309-38.496,4.028-52.691C69.672,369.542,73.424,346.908,73.424,346.908z"/>
							</g>
							<g>
								<path style="fill:#1B1B28;" d="M103.755,449.211c4.741,3.483,12.726,2.355,12.65,6.667
									c-10.445,1.11-15.727-0.017-15.727-0.017l-3.645-0.461c0,0-1.412-3.515-0.435-6.365L103.755,449.211z"/>
								<path style="fill:#384259;" d="M103.759,449.215c-2.38,1.442-4.769,1.343-7.158-0.18c0,0-4.038-53.141-7.428-87.505
									l0.64-4.642l0.694-5.093h14.874c0,0,0.216,2.1,0.478,6.04c0.009,0.081,0.009,0.153,0.018,0.234
									c0.009,0.162,0.018,0.333,0.036,0.505C106.788,372.248,108.068,405.611,103.759,449.215z"/>
							</g>
						</g>
						<g>
							<path style="fill:#7AC7C4;" d="M92.763,293.593c2.383,0.45,4.784,0.992,7.363,2.401c0,0,3.596,31.603,5.398,55.941
								c-23.184,4.902-32.894-0.093-32.894-0.093c1.378-28.658,5.584-55.848,5.584-55.848l7.313-2.401H92.763z"/>
							<g>
								<path style="fill:#222B3D;" d="M83.185,321.619c0,0,0.578-13.337-0.125-27.217c0,0-1.104-0.004-1.803,0.592
									c0,0-0.483,15.793-1.13,26.216C80.127,321.21,81.028,322.495,83.185,321.619z"/>
								<path style="fill:#222B3D;" d="M95.897,321.619c0,0-1.111-13.553-0.408-27.432c0,0,1.111-0.046,1.809,0.55
									c0,0,1.009,16.051,1.657,26.473C98.955,321.21,98.055,322.495,95.897,321.619z"/>
								<g>
									<path style="fill:#384259;" d="M105.878,358.068l-1.794-0.135l-14.27-1.046l-17.542-1.298
										c-0.063-0.415,1.884-31.758,1.884-31.758s4.264-2.146,4.823-8.555c0,0,10.051-3.651,20.941,0c0,0-0.685,6.139,4.138,7.798
										c0,0,0.415,8.798,0.91,18.561c0.288,5.571,0.613,11.457,0.893,16.199C105.869,357.915,105.869,357.987,105.878,358.068z"/>
									<path style="fill:#222B3D;" d="M78.698,326.102c0,0,12.264-1.792,21.842,0c0,0,3.033,10.129-10.196,10.129
										C77.115,336.23,78.698,326.102,78.698,326.102z"/>
								</g>
							</g>
						</g>
						<g>
							<path style="fill:#FFFFFF;" d="M105.914,358.573c-0.252,0.649-0.442,1.316-0.559,2.001c-0.099,0.55-0.207,1.19-0.703,1.442
								c-0.415,0.198-0.938,0.018-1.235-0.334c-0.288-0.361-0.37-0.838-0.361-1.298c0.027-0.595,0.207-1.19,0.532-1.704
								c0.162-0.253,0.352-0.487,0.496-0.748c0.045-0.072,0.081-0.153,0.117-0.234c0.144-0.361,0.126-0.82-0.162-1.073
								c-0.298-0.252-0.874-0.072-0.865,0.306c-0.189,0.27-0.622,0.234-0.856,0.009c-0.234-0.225-0.306-0.568-0.342-0.892
								c-0.036-0.315-0.036-0.649-0.171-0.947c-0.271-0.604-1.01-0.865-1.668-0.811c-0.658,0.045-1.262,0.334-1.884,0.559
								c-0.73,0.252-1.505,0.424-2.272,0.352c-0.766-0.081-1.533-0.424-2.001-1.037c-0.469-0.613-0.577-1.514-0.171-2.173
								c0.045-0.072,0.09-0.135,0.153-0.198c0.496-0.613,1.388-0.82,2.209-0.865c0.901-0.036,1.83,0.054,2.668-0.279
								c0.838-0.334,1.506-1.316,1.118-2.128c-0.171-0.352-0.505-0.595-0.829-0.82c-0.315-0.225-0.658-0.451-0.847-0.793
								c-0.189-0.352-0.171-0.838,0.144-1.073c0.424-0.316,1.028,0.018,1.397,0.406c0.379,0.379,0.802,0.847,1.325,0.784
								c0.388-0.054,0.685-0.397,0.766-0.766c0.081-0.379-0.018-0.775-0.198-1.118c-0.433-0.838-1.262-1.397-1.875-2.118
								c-0.613-0.721-0.992-1.839-0.406-2.578c0.433-0.541,1.235-0.658,1.884-0.46c0.658,0.198,1.208,0.658,1.722,1.109
								c0.37,0.334,0.766,0.676,1.262,0.739c0.234,0.027,0.478-0.054,0.667-0.198c0.288,5.571,0.613,11.457,0.893,16.199
								c0.009,0.081,0.009,0.153,0.018,0.234C105.887,358.231,105.896,358.402,105.914,358.573z"/>
							<path style="fill:#FFFFFF;" d="M94.044,347.33c-0.251-0.202-0.492-0.443-0.581-0.752c-0.088-0.31,0.033-0.699,0.333-0.814
								c0.222-0.085,0.471-0.004,0.69,0.089c0.829,0.352,1.58,0.889,2.18,1.561c0.175,0.196,0.342,0.411,0.414,0.664
								c0.063,0.224,0.053,0.663-0.224,0.718c-0.206,0.041-0.778-0.314-0.976-0.402C95.232,348.108,94.598,347.777,94.044,347.33z"
								/>
						</g>
					</g>
					<g>
						<g>
							<path style="fill:#222B3D;" d="M51.534,376.85c-0.056,0-0.113-0.011-0.167-0.033c-0.231-0.092-0.344-0.355-0.251-0.585
								c0.172-0.43,4.28-10.516,11.008-10.928c4.239-0.266,8.467,3.401,12.578,10.877c0.12,0.218,0.04,0.492-0.178,0.613
								c-0.219,0.119-0.491,0.04-0.613-0.178c-3.928-7.146-7.868-10.635-11.732-10.413c-6.164,0.378-10.186,10.263-10.226,10.362
								C51.882,376.743,51.713,376.85,51.534,376.85z"/>
							<path style="fill:#F73859;" d="M51.767,376.4l2.891,18.503c5.507,1.217,11.015,1.217,16.522,0L74.07,376.4
								C66.636,375.464,59.202,375.464,51.767,376.4z"/>
						</g>
						<g>
							<g>
								<path style="fill:#EFAD9C;" d="M74.19,300.528c0,0-13.043,15.343-13.689,60.493h5.305c0,0,1-27.623,9.968-44.444
									L74.19,300.528z"/>
								<path style="fill:#EFAD9C;" d="M65.413,359.936c-0.096-0.181-0.284-0.179-0.416-0.089c-0.025-0.019-0.05-0.039-0.085-0.051
									c-1.226-0.435-2.686-0.818-3.763,0.164c-0.873,0.796-1.395,2.104-1.684,3.223c-0.618,2.393-0.233,5.022,1.12,7.098
									c0.071,0.109,0.178,0.143,0.28,0.133c0.211,0.459,0.508,0.865,0.951,1.134c0.149,0.09,0.288,0.033,0.371-0.073
									c0.065,0.079,0.134,0.153,0.213,0.215c0.286,0.225,0.652,0.261,0.945,0.128c0.25,0.143,0.547,0.166,0.82-0.029
									c0.535-0.384,0.388-1.059,0.288-1.61c-0.132-0.721-0.184-1.456-0.165-2.189c0.03-1.132,0.245-2.253,0.623-3.318
									c0.023,0.182,0.045,0.364,0.068,0.547c0.068,0.542,0.078,1.134,0.217,1.662c0.102,0.388,0.476,0.729,0.892,0.546
									c0.408-0.18,0.428-0.751,0.478-1.125C66.861,364.118,66.445,361.881,65.413,359.936z"/>
							</g>
							<path style="fill:#7AC7C4;" d="M78.213,295.994c-5.993,2.594-11.892,16.446-11.892,16.446l9.396,5.631L78.213,295.994z"/>
						</g>
					</g>
				</g>
				<g>
					<path style="fill:#1B1B28;" d="M81.048,264.509c0.297-0.258,0.629-0.49,1.008-0.594c0.38-0.103,0.746-0.106,1.052,0.14
						c0.695-1.552,1.972-2.836,3.52-3.539c1.549-0.703,3.355-0.82,4.981-0.322c0.577,0.177,1.142,0.435,1.579,0.851
						c0.437,0.416,0.75,0.987,0.709,1.589c1.687-0.607,3.564-0.777,5.282-0.264c1.718,0.513,3.25,1.758,3.911,3.425
						c0.661,1.667,0.285,3.854-0.993,5.112c-0.122,1.143-0.502,2.285-1.179,3.362c-2.878,4.577-8.762,6.009-11.575,10.604
						c-0.614,1.002-1.385,2.13-2.708,2.105c-1.218-0.023-1.993-1.113-2.619-2.015c-1.773-2.555-3.163-5.373-4.163-8.316
						c-0.952-2.801-1.91-6.035-0.651-8.899C79.675,266.679,80.165,265.277,81.048,264.509z"/>
					<path style="fill:#EFAD9C;" d="M84.597,268.687c3.266-5.988,14.758-3.944,15.651,0.817c1.837,9.794,0.442,13.814-2.28,16.128
						c-3.15,2.677-5.206,2.336-5.206,7.962c-1.191,2.994-5.761,3.402-7.236,0c0.091-7.451-2.466-13.099-2.466-13.099
						S83.25,271.156,84.597,268.687z"/>
					<path style="fill:#1B1B28;" d="M101.049,270.555c-0.173-0.963-0.653-2.272-1.822-3.865c-1.683-2.292-6.578-2.858-10.752-2.087
						c-4.174,0.771-5.988,2.586-6.124,5.58c-0.136,2.994-0.44,6.733-0.44,6.733l1.62,1.235c2.541-1.695,2.291-8.139,2.291-8.139
						c1.811,0.927,3.783,1.43,5.805,1.656c0.617,0.069,1.248,0.109,1.854-0.024c0.607-0.134,1.193-0.463,1.517-0.993
						c1.283,0.622,2.628,1.137,4.044,1.294c0.479,0.053,0.982,0.071,1.422-0.125C100.905,271.625,101.134,271.029,101.049,270.555z"
						/>
					<g>
						<g>
							<path d="M91.616,277.919c0,0.407,0.33,0.737,0.737,0.737s0.737-0.33,0.737-0.737c0-0.407-0.33-0.737-0.737-0.737
								S91.616,277.512,91.616,277.919z"/>
							<circle style="fill:#FFFFFF;" cx="92.623" cy="277.717" r="0.27"/>
						</g>
						<g>
							<path d="M97.315,277.919c0,0.407,0.33,0.737,0.737,0.737s0.737-0.33,0.737-0.737c0-0.407-0.33-0.737-0.737-0.737
								S97.315,277.512,97.315,277.919z"/>
							<circle style="fill:#FFFFFF;" cx="98.321" cy="277.717" r="0.27"/>
						</g>
						<path style="fill:#5B3D31;" d="M96.822,275.034c0.925-0.644,2.128-0.607,3,0.147c0.163,0.141,0.192,0.425,0.068,0.609
							c-0.127,0.188-0.367,0.219-0.531,0.078c-0.358-0.31-0.814-0.449-1.259-0.417c-0.225,0.017-0.448,0.077-0.655,0.18
							c-0.183,0.091-0.361,0.25-0.567,0.131c-0.049-0.028-0.091-0.07-0.125-0.119C96.638,275.473,96.646,275.157,96.822,275.034z"/>
						<path style="fill:#5B3D31;" d="M93.95,275.034c-1.061-0.644-2.44-0.607-3.44,0.147c-0.187,0.141-0.22,0.425-0.078,0.609
							c0.145,0.188,0.421,0.219,0.609,0.078c0.41-0.309,0.933-0.443,1.443-0.409c0.258,0.017,0.513,0.077,0.751,0.177
							c0.21,0.088,0.417,0.245,0.651,0.127c0.056-0.028,0.105-0.07,0.143-0.119C94.16,275.473,94.151,275.157,93.95,275.034z"/>
						<path style="fill:#C16B5B;" d="M95.49,282.108c0.402,0,0.82-0.088,1.224-0.3c0.188-0.099,0.261-0.332,0.162-0.52
							c-0.099-0.188-0.331-0.26-0.52-0.162c-0.975,0.511-2.062-0.014-2.372-0.44c-0.125-0.171-0.366-0.209-0.538-0.084
							c-0.172,0.126-0.209,0.366-0.084,0.538C93.727,281.64,94.564,282.108,95.49,282.108z"/>
						<path style="fill:#C16B5B;" d="M96.399,279.917c0.042,0,0.08-0.027,0.092-0.07c0.182-0.628-0.031-0.842-0.243-0.91
							c-0.214-0.068-0.471-0.013-0.763,0.167c-0.045,0.028-0.059,0.087-0.031,0.133c0.029,0.045,0.088,0.058,0.133,0.031
							c0.241-0.149,0.444-0.199,0.602-0.147c0.189,0.061,0.229,0.288,0.117,0.673c-0.015,0.051,0.015,0.104,0.066,0.119
							C96.381,279.916,96.391,279.917,96.399,279.917z"/>
					</g>
					<g>
						<path style="fill:#EFAD9C;" d="M80.54,280.709c0.985,1.175,2.539,1.493,3.472,0.711c0.932-0.782,0.89-2.368-0.095-3.543
							c-0.985-1.175-2.539-1.493-3.472-0.711C79.512,277.948,79.555,279.534,80.54,280.709z"/>
						<path style="fill:#C16B5B;" d="M81.087,277.741c0.419-0.221,0.977-0.211,1.493,0.029c0.257,0.119,0.444,0.265,0.571,0.444
							c0.168,0.238,0.215,0.536,0.122,0.779c-0.083,0.218-0.257,0.359-0.41,0.484c-0.111,0.09-0.216,0.176-0.275,0.277
							c-0.091,0.156-0.068,0.376,0.054,0.51c0.121,0.134,0.337,0.177,0.502,0.101c0.097-0.045,0.211-0.002,0.256,0.094
							c0.044,0.096,0.003,0.211-0.094,0.256c-0.106,0.049-0.22,0.072-0.335,0.072c-0.229,0-0.458-0.093-0.613-0.264
							c-0.234-0.258-0.276-0.662-0.101-0.962c0.094-0.162,0.238-0.279,0.365-0.382c0.127-0.103,0.247-0.201,0.294-0.323
							c0.047-0.122,0.017-0.286-0.077-0.418c-0.038-0.053-0.089-0.101-0.146-0.147c-0.191-0.002-0.431,0.057-0.551,0.189
							c-0.136,0.149-0.2,0.365-0.168,0.564c0.017,0.105-0.054,0.204-0.159,0.221c-0.01,0.002-0.021,0.003-0.032,0.003
							c-0.092,0-0.174-0.067-0.19-0.161c-0.053-0.317,0.046-0.648,0.263-0.886c0.081-0.088,0.182-0.148,0.288-0.197
							c-0.318-0.086-0.633-0.069-0.877,0.06c-0.301,0.159-0.529,0.57-0.374,0.905c0.044,0.097,0.002,0.211-0.094,0.256
							c-0.097,0.044-0.211,0.003-0.256-0.094C80.319,278.661,80.568,278.017,81.087,277.741z"/>
					</g>
				</g>
				<g>
					<path style="fill:#222B3D;" d="M176.963,274.49l-0.617,1.928c1.093,0.35,1.698,1.525,1.347,2.618l-0.307,0.957
						c-0.351,1.095-1.523,1.699-2.619,1.348l-4.92-1.576c-1.022-0.327-2.116-0.245-3.106,0.248l-3.299,1.734
						c-1.245,0.654-2.182,1.771-2.611,3.11l-30.944,96.623c-0.211,0.659,0.152,1.363,0.811,1.574l0,0
						c0.659,0.211,1.363-0.152,1.574-0.811l31.224-97.496c0.173-0.54,0.548-0.991,1.048-1.259l3.126-1.678
						c0.488-0.242,1.042-0.284,1.56-0.118l4.92,1.576c2.16,0.692,4.472-0.499,5.164-2.659l0.307-0.957
						C180.311,277.497,179.119,275.181,176.963,274.49z"/>
					<path style="fill:#F73859;" d="M178.175,271.69c0.117,3.119-0.784,5.643-2.47,7.716l-22.338-7.158
						c-0.108-2.867,0.712-5.445,2.47-7.716l2.146,0.685l13.9,4.453L178.175,271.69z"/>
					<path style="fill:#C4EDDE;" d="M172.072,272.033c-0.135,0.18-0.361,0.252-0.586,0.271c-0.55,0.036-1.073-0.261-1.496-0.631
						c-0.424-0.361-0.784-0.793-1.226-1.127c-0.451-0.333-1.028-0.559-1.559-0.406c-0.604,0.162-1.109,0.775-1.722,0.658
						c-0.46-0.081-0.739-0.541-0.938-0.956c-0.207-0.415-0.433-0.884-0.874-1.037c-0.406-0.153-0.883,0.036-1.208,0.324
						c-0.334,0.289-0.559,0.676-0.829,1.028c-0.261,0.343-0.604,0.667-1.037,0.757c-0.37,0.081-0.766-0.036-1.037-0.297
						c-0.27-0.261-0.397-0.667-0.325-1.037c0.072-0.37,0.316-0.676,0.487-1.01c0.171-0.333,0.271-0.757,0.054-1.073
						c-0.207-0.297-0.631-0.352-1.001-0.361c-0.37,0-0.766,0.009-1.055-0.216c-0.315-0.253-0.379-0.739-0.225-1.109
						c0.108-0.234,0.279-0.433,0.487-0.595l13.9,4.453c-0.054,0.415-0.018,0.838,0.108,1.226
						C172.108,271.276,172.306,271.717,172.072,272.033z"/>
				</g>
			</g>
		</g>
	</g>
</g>
</svg>
